<svg width="42" height="44" viewBox="0 0 42 44" fill="none" xmlns="http://www.w3.org/2000/svg">
<path d="M18.0703 43.5078C15.4792 43.5078 13.0964 43.0651 10.9219 42.1797C8.76042 41.3073 6.87891 40.0703 5.27734 38.4688C3.67578 36.8802 2.4388 35.0117 1.56641 32.8633C0.69401 30.7148 0.257812 28.3776 0.257812 25.8516C0.257812 23.3646 0.713542 21.0143 1.625 18.8008C2.54948 16.5872 3.82552 14.6471 5.45312 12.9805C7.08073 11.3008 8.96875 10.0312 11.1172 9.17188C12.1458 8.76823 12.875 8.82682 13.3047 9.34766C13.7344 9.84245 13.7344 10.5391 13.3047 11.4375C12.9401 12.2188 12.6406 13.1953 12.4062 14.3672C12.1849 15.5391 12.0742 16.6979 12.0742 17.8438C12.0742 20.6693 12.6732 23.1367 13.8711 25.2461C15.082 27.3424 16.7682 28.9766 18.9297 30.1484C21.0911 31.3073 23.6237 31.8867 26.5273 31.8867C27.6211 31.8867 28.6628 31.7956 29.6523 31.6133C30.6549 31.418 31.5599 31.1445 32.3672 30.793C33.1745 30.4414 33.806 30.487 34.2617 30.9297C34.7565 31.3854 34.7956 32.1016 34.3789 33.0781C33.4674 35.2396 32.2044 37.0951 30.5898 38.6445C28.9753 40.207 27.1003 41.4049 24.9648 42.2383C22.8424 43.0846 20.5443 43.5078 18.0703 43.5078ZM33.3828 23.8984C33.1745 23.8984 32.9987 23.8333 32.8555 23.7031C32.7122 23.5599 32.6211 23.3841 32.582 23.1758C32.4258 21.8997 32.2565 20.9036 32.0742 20.1875C31.9049 19.4583 31.6315 18.918 31.2539 18.5664C30.8763 18.2018 30.3034 17.9219 29.5352 17.7266C28.7799 17.5182 27.7318 17.2773 26.3906 17.0039C25.9219 16.9128 25.6875 16.6523 25.6875 16.2227C25.6875 16.0013 25.7526 15.819 25.8828 15.6758C26.026 15.5195 26.1953 15.4349 26.3906 15.4219C27.7318 15.2266 28.7799 15.0443 29.5352 14.875C30.3034 14.6927 30.8763 14.4128 31.2539 14.0352C31.6315 13.6576 31.9049 13.0977 32.0742 12.3555C32.2565 11.6003 32.4258 10.5716 32.582 9.26953C32.6471 8.77474 32.9141 8.52734 33.3828 8.52734C33.8646 8.52734 34.1315 8.78125 34.1836 9.28906C34.3398 10.5651 34.5026 11.5612 34.6719 12.2773C34.8542 12.9935 35.1341 13.5339 35.5117 13.8984C35.9023 14.25 36.4818 14.5234 37.25 14.7188C38.0182 14.9141 39.0664 15.1484 40.3945 15.4219C40.8633 15.513 41.0977 15.7799 41.0977 16.2227C41.0977 16.6654 40.8307 16.9258 40.2969 17.0039C38.9818 17.2122 37.9466 17.4141 37.1914 17.6094C36.4492 17.8047 35.8893 18.0911 35.5117 18.4688C35.1341 18.8333 34.8542 19.3802 34.6719 20.1094C34.5026 20.8385 34.3398 21.8477 34.1836 23.1367C34.1315 23.6445 33.8646 23.8984 33.3828 23.8984ZM23.9883 10.2461C23.7148 10.2461 23.5456 10.1029 23.4805 9.81641C23.3372 9.00911 23.207 8.38411 23.0898 7.94141C22.9857 7.48568 22.8164 7.14714 22.582 6.92578C22.3607 6.69141 22.0156 6.50911 21.5469 6.37891C21.0781 6.23568 20.4271 6.07943 19.5938 5.91016C19.2943 5.84505 19.1445 5.67578 19.1445 5.40234C19.1445 5.12891 19.2943 4.96615 19.5938 4.91406C20.4401 4.77083 21.0911 4.63411 21.5469 4.50391C22.0026 4.36068 22.3411 4.17839 22.5625 3.95703C22.7969 3.72266 22.9727 3.3776 23.0898 2.92188C23.207 2.46615 23.3372 1.83464 23.4805 1.02734C23.5456 0.727865 23.7148 0.578125 23.9883 0.578125C24.2617 0.578125 24.418 0.727865 24.457 1.02734C24.6133 1.82161 24.75 2.44661 24.8672 2.90234C24.9844 3.34505 25.1536 3.68359 25.375 3.91797C25.6094 4.13932 25.9544 4.32161 26.4102 4.46484C26.8789 4.59505 27.5365 4.74479 28.3828 4.91406C28.6693 4.97917 28.8125 5.14193 28.8125 5.40234C28.8125 5.67578 28.6628 5.84505 28.3633 5.91016C27.5299 6.06641 26.8789 6.20964 26.4102 6.33984C25.9414 6.47005 25.5898 6.65234 25.3555 6.88672C25.1341 7.10807 24.9648 7.44661 24.8477 7.90234C24.7305 8.35807 24.6003 8.98958 24.457 9.79688C24.418 10.0964 24.2617 10.2461 23.9883 10.2461Z" fill="#F5F5F5" fill-opacity="0.4"/>
</svg>
